<?xml version="1.0" encoding="UTF-8"?>
<svg id="Calque_2" data-name="Calque 2" xmlns="http://www.w3.org/2000/svg" viewBox="0 0 533.62 224.03">
  <defs>
    <style>
      .cls-1, .cls-2 {
        isolation: isolate;
      }

      .cls-2 {
        font-family: Roslindale-DisplayCondensedRegular, Roslindale;
        font-size: 81.7px;
      }

      .cls-2, .cls-3 {
        fill: #fff;
      }

      .cls-4 {
        letter-spacing: 0em;
      }
    </style>
  </defs>
  <g id="Calque_1-2" data-name="Calque 1">
    <g>
      <path class="cls-3" d="M19.03,157.3c-.17,2.47-.63,5.9-1.37,10.3-.52,3.2-.65,5.4-1.41,7.4-.77,1.9-1.57,3.6-2.3,5s-1.41,2.4-1.94,3l-.7.8c-.26.3-.63.6-1.02.7-.68.2-1.1,0-1.42-1l-.16-1.3c.05-2.1.59-7.6,1.71-16.6,1.13-8.9,2.15-17.1,3.38-24.4,1.09-6.8,2.11-13.3,3.2-19.2,1.08-6,1.88-10.2,2.47-12.8l.83-3.9c.76-2.8,1.79-5.1,2.97-6.9,1.18-1.8,2.26-2.8,3.22-3.2s1.1,0,1.26.5.14,1.2-.01,2.4c-.18,1-.81,4.9-1.78,11.9-1.14,8-1.88,12.7-3.57,25.3-1.32,9.9-2.92,17.4-3.16,22.1l-.21-.1ZM26.76,129.1c1.19-.9,2.51-1.6,4.08-2.7,3.02-2.3,7.06-6.2,9.14-9.7,3.42-5.7,4.43-14.8,3.19-20.1s-2.16-5.5-5.25-7.9-4.13-1.9-5.36-2.2-4.57-.6-6.25-.4c-1.68.2-3.53.6-5.06,1.2-2.78,1-5.21,2.4-7.56,4.5s-4.27,5.3-5.61,8.3c-1.34,3-3.93,10.6-1.86,15.4.82,1.8,2.99,4.9,5.53,5.3.51.1.6,0,.64.3.05.4.08.7-.3.8-.58.2-1.29.1-2.32-.2-4.54-1.2-7.04-3.7-8.45-7.1-2.95-7.1-.59-14.1,3.33-19,3.9-5,9.56-8.7,16.37-11.1s4.63-1.4,6.87-1.9c2.35-.4,5.69-.9,8.13-.6s7.08,1.5,9.04,2.8,4.83,3.6,6.06,8-.22,11.5-1.81,15.8-3.85,7.1-6.48,10.2c-2.62,3.2-6.76,6.2-9.43,8.1"/>
      <path class="cls-3" d="M65.75,147.4c2.17-4.4,5.02-11.5,8.55-21.3.06-.3.25-.4.34-.5s.2,0,.34.3c.46,1.3.32,2.7-.2,4.2-2.65,7.1-5.12,13.2-7.43,18.1-1.66,3.7-3.8,7.5-6.44,11.4-2.65,3.8-5.16,6.2-7.46,7s-4.88-.7-6.2-5c-2.26-7.2-2.25-15.5-.1-25.1,2.26-9.5,5.99-16.8,11.3-21.7,2.25-2.1,4.37-3.6,6.49-4.3s3.88-.2,4.53,1.9c1.27,3.9.21,9.3-3.17,16.1-3.29,6.8-7.69,12.6-12.92,17.4-.18.2-.34.5-.39.9-.03,3.1.28,5.7.95,7.9s2.01,3.4,3.64,2.8c2.59-.9,5.29-4.3,8.08-10.2l.11.1ZM62.49,122.7c.17-1.9.07-3.6-.39-4.9s-.78-1.5-1.46-1.3-.75.4-1.1.8c-.35.4-.6.8-.77,1.1l-.33.6c-1.3,2.5-2.61,6.6-3.8,12.5-1.31,5.8-1.68,9.4-1.21,10.8s.15.4.34.3c.39-.1,1.02-.7,2.07-1.9,1.07-1.1,2.31-3.3,3.8-6.7,1.51-3.3,2.45-7.1,2.84-11.4v.1Z"/>
      <path class="cls-3" d="M100.64,136.5c-4.72,9.9-8.17,15.3-10.37,16.1s-1.7,0-2.16-1.3-.4-1.7-.36-3c-.14-1.2,0-2.5.06-3.7.14-1.3.2-2.5.37-3.6s.25-2.1.43-3.1.22-1.5.22-1.5c.35-2.1.88-5.2,1.61-9.1.73-3.9,1.35-7.1,1.74-9.7.4-2.5.52-4,.36-4.5s-.36-.5-.64-.3l-1.08,1c-2.02,3.2-4.27,7.8-6.64,13.9-2.37,6.1-4.25,11.3-5.51,15.8l-2.01,6.6c-.41,1.6-.75,2.9-1.03,3.9-.38,1-.95,2.1-1.81,3.3s-1.86,2-3.01,2.4-1.38.2-1.55-.4-.08-2.3.27-5.3c.34-3,.69-5.9,1.06-8.7l.61-4.1,3.33-20.6c.36-2,.67-3.6.94-4.7.27-1.1.7-2.5,1.29-4.3.6-1.7,1.32-3.2,2.29-4.3s2.07-1.9,3.4-2.5c.48-.2.8,0,.96.5s.1.8.13,1.1c-.65,2.9-1.48,7.7-2.49,14.3-1.11,6.6-1.7,10.9-1.96,12.9-.04.5,0,.8.02,1s.12.2.21.1.35-.4.69-.9c.67-1.9,1.59-4.3,2.74-7.2s3.23-7.3,6.1-13.4c2.97-6.1,5.66-10.4,7.96-12.9.53-.6,1.08-1,1.76-1.2s1.4,0,1.74,1.2c.51,3.4-.05,9.6-1.75,18.8-1.89,10.1-2.6,15.9-2.11,17.5s.48.7.87.6.66-.3.92-.7c.35-.4.59-.9,1.02-1.5.33-.6.67-1.1.81-1.6.24-.5.47-1.1.88-1.8.4-.8.56-1.2.63-1.4,1.66-3.7,3.62-9,6.11-15.8.06-.3.25-.4.34-.5s.2,0,.34.3c.46,1.3.32,2.7-.2,4.2-2.65,7.1-5.12,13.2-7.43,18.1h-.1Z"/>
      <path class="cls-3" d="M134.11,118.7c1.66-3.7,3.62-9,6.11-15.8.06-.3.25-.4.34-.5s.2,0,.34.3c.46,1.3.32,2.7-.2,4.2-2.65,7.1-5.12,13.2-7.43,18.1-4.7,10-8.27,15.3-10.47,16.1-.86.3-1.4,0-1.73-1.1s-.42-3.5-.2-6.7.67-6.1,1.16-8.7l.63-3.9c.15-.4.2-.8.08-1s-.12-.2-.21-.1c-.3,0-.45.4-.77,1.1-1.13,3.1-2.43,6.4-4.03,9.8-1.59,3.4-2.87,6.1-3.93,8.1l-1.56,2.8c-1.75,2.9-3.25,4.6-4.39,5.1h-.4c-1.06.3-1.86-.5-2.5-2.5-1.61-5.1-1.89-11.6-.71-19.3,1.18-7.7,3.52-14.9,7.02-21.6,3.6-6.7,7.7-10.9,12.5-12.5s.96-.3,1.36-.3h2c.1,0,.28-.2.34-.5,3.93-26.5,7.59-45.2,10.81-55.9.91-3.3,1.78-5.2,2.55-5.4s.51.1.68.7c.47,1.4.46,4.7-.13,9.8-3.22,22.4-5.56,37.9-6.92,46.6-2.41,15.8-3.97,25.3-4.49,28.5-1.2,6.7-1.52,10.7-1.18,11.9s.37.6.76.5.66-.3.92-.7c.35-.4.59-.9,1.02-1.5.33-.6.66-1.2.88-1.8.24-.5.56-1.2.96-2,.3-.8.54-1.3.71-1.6l.08-.2ZM115.59,130.2c.24-.5.57-1.1,1.06-2,.39-.9,1.19-2.6,2.35-5.4,1.18-2.7,2.25-5.4,3.12-8.2.96-2.8,1.96-6.2,2.89-10.1,1.02-4,1.67-7.8,2.12-11.5l-.05-.4-.24-.3c-.51-.1-1,0-1.59.1-2.59.9-5.1,4.2-7.52,9.9-2.42,5.7-4.22,11.5-5.32,17.4-1.09,5.9-1.3,10-.65,12.1s.76,1.3,1.43,1.1,1.46-1.2,2.28-2.7h.1Z"/>
      <path class="cls-3" d="M163.04,113.1c2.17-4.4,7.32-12.4,10.86-22.1.06-.3.25-.4.34-.5s.2,0,.34.3c.46,1.3.32,2.7-.2,4.2-2.65,7.1-7.52,14-9.74,18.9-1.66,3.7-3.8,7.5-6.44,11.4-2.65,3.8-9.48,8.5-13.7,9.2s-4.88-.7-6.2-5c-2.26-7.2-2.25-15.5-.1-25.1,2.26-9.5,5.99-16.8,11.3-21.7,2.25-2.1,4.37-3.6,6.49-4.3s3.88-.2,4.53,1.9c1.27,3.9.21,9.3-3.17,16.1-3.29,6.8-7.69,12.6-12.92,17.4-.18.2-.34.5-.39.9-.03,3.1.47,5.6.95,7.9,1.85,8.8,7.92,3.5,10.08,1.5s5.18-5.2,7.97-11.1v.1ZM153.35,90.6c.17-1.9.07-3.6-.39-4.9s-.78-1.5-1.46-1.3-.75.4-1.1.8c-.35.4-.6.8-.77,1.1l-.33.6c-1.3,2.5-2.61,6.6-3.8,12.5-1.31,5.8-1.68,9.4-1.21,10.8s.15.4.34.3c.39-.1,1.02-.7,2.07-1.9,1.07-1.1,2.31-3.3,3.8-6.7,1.51-3.3,2.45-7.1,2.84-11.4v.1Z"/>
      <path class="cls-3" d="M191.38,68.3c-.61,1.6-1.79,4.3-3.71,8.3s-3.59,7.6-5.21,10.8l-2.43,4.8c-2.35,4.6-4.41,9.1-6.27,13.6-1.76,4.5-2.97,7.8-3.7,10l-.92,3.2c-.13.6-.08,1,.06,1.3.33,1.1,4.06,1.3,5.02,1,3.73-1.4,19.67,4.8,13.05,32.2-6.62,27.4-7.98,26.1-15.25,38-6.77,11.1-12.25,18.8-21.09,24.3-9.67,6.1-16.02,4-20.52-1.8-3.89-4.9-5.88-14.9-2.2-25.1,3.67-10.3,4.42-12.4,13.09-26,3.54-5.5,15.51-20.8,20.8-24.2-.21,1.6-1.36,2.8-2.45,3.8-8.67,8.6-22.59,29.3-28.58,52-2.21,8.3.36,33.9,17.27,19.8,20.64-17.2,29.32-50,32.4-62.7,4.17-17-3.34-29.6-11.33-27.8-.98.2-1.54.5-1.74.5-.76.3-1.43.6-2.08,1-.55.4-1.03.6-1.19.9l-.26.3c-1.72,2.3-2.98,3.5-3.85,3.8s-.8,0-.97-.6c-.5-1.7-.24-4.5.79-8.4s2.55-7.9,4.45-12.1c1.9-4.2,3.49-7.6,4.67-10.3,1.28-2.7,2.17-4.4,2.67-5.3,2.3-4.2,4.66-8.7,7.17-13.6,2.51-4.9,3.7-7.5,3.57-7.8-.05-.4-.75-.4-1.7,0-5.94,2.2-10.51,7.4-13.82,15.7,0,0-.18.2-.46.3-.76.3-1.28.2-1.3,0s.18-1,.49-2.6c.41-1.6.81-3.3,1.27-5.3.47-1.9.72-3.2.73-3.9.29-.9.72-1.5,1.47-1.9,4.95-2.1,9.72-4,14.23-5.6,3.07-1.1,5.18-1.8,6.45-2.1.68-.2,1.1,0,1.25.4s.06.5-.17,1.1h.3Z"/>
      <path class="cls-3" d="M253.77,8c1.77-3.6,3.58-6,5.75-7.1,2.07-1.1,4.88-1.8,7.6,1.7,2.72,3.5,1.67,3.9,1.39,5.8s-1.96,4.5-4.28,5.2c-3.88,1-3.8-5-3.83-5.3-.11-.9-.38-.7-.85-.4-.56.3-2.28,2.7-2.69,3.4-.83,1.4-1.55,2.9-2.26,4.5-4.66,10.4-21.68,54.5-23.38,59.5-1.46,4.5-3.03,8.9-4.41,13.3-2.19,6.8-4.46,12.9-6.62,18.2-2.25,5.4-3.92,9-4.98,11l-1.55,2.9c-.4.8-.86,1.2-1.33,1.4s-1.34-.3-1.69-1.6c-1.62-5.2-2.98-14.9-4.18-29.1-.77-8.9-1.13-17.8-1.12-26.9.02-9,.21-15.8.57-20.3l.57-6.9c.21-2.4.95-4.6,2.03-6.4,1.18-1.8,2.25-2.9,3.31-3.3s1.4,0,1.57.6.05.4.11.9c-.12,3.2-.11,7.4-.19,12.6-.07,5.3.2,14.2.72,26.9.52,12.7,1.48,23.2,2.89,31.7.43,1.1.89,1.6,1.47,1.4s.63-.6.93-1.4c8.88-21.1,20.74-56.5,28.44-78.2,2.02-5.7,3.38-8.5,6.11-14.1h-.1Z"/>
      <path class="cls-3" d="M274.87,42.3c1.29-2.6,2.11-2.4,3.04-2.2.1,0,.2,0,.22.2.01.1-1.76,2-1.84,2.2-1.56,3.7-2.51,4.9-5.09,7.6s-2.18,2.7-2.73,3.9-1.05,2.1-1.43,3.1-.78,1.8-.9,2.5c-.76,4.5-.59,9.3-1.86,14.5-1.28,5.2-3.29,10.1-5.94,14.7-2.75,4.6-5.8,7.5-9.26,8.7-4.32,1.5-7.38-.7-9.19-6.6s-1.96-11.4-.81-18.5c1.05-7.1,3.36-13.7,6.74-19.7,3.38-6,7.43-9.8,12.14-11.4s5.56-.3,6.42,2.7.49,4.1-.11,7.4l.04.3c.01.1.12.2.21.1.8-.8,7.59-4.3,10.16-9.5h.2ZM258.74,62.1c-5.26,2.8-6.05-5.4-5.51-8.4s.82-3.2,1.53-4.8c1.65-3.8,4.5-6.7,6.21-4.9s-.71,1.6-1.04,1.3c-1.31-.9-3.1,2.5-3.55,3.8s-1.08,3.5-.15,5.4,1.44,1.2,2.64,1.2,3.38-1,3.24-2.2c-.3-2.5-.54-4.5-.98-5.7-.94-2.8-2.18-4-3.91-3.4s-4.49,4.3-6.46,10.4c-1.97,6.1-3.19,12.6-3.75,19.6s-.34,12.2.78,15.7,2.03,3.6,3.66,3c2.49-.9,4.63-4.8,6.4-11.7,1.67-6.9,2-13.4.88-19.4-.01-.1-.24-.3-.27-.6-.64-2,.49-4.3,3.17-6.9"/>
      <path class="cls-3" d="M287.24,62.9l1.13-6.4c-.02-.2-.14-.3-.22-.2s-.28.2-.34.5c-1.26,3.7-2.73,7.3-4.3,10.9-1.57,3.6-2.75,6.3-3.54,8l-1.39,2.6c-3.1,6.7-5.57,10.3-7.38,11s-1.42-.2-1.87-1.4-.63-3.6-.5-6.7c.13-3.1.28-6,.68-8.5l.46-3.7c1.72-12.4,3.21-20.8,4.47-25.3.64-2.2,1.7-4.2,2.98-6,1.38-1.8,2.55-2.9,3.52-3.2s1,0,1.15.4.08.7-.06,1.2c.04.3-.54,3-1.53,8.1s-1.78,9.4-2.26,12.9c-1.35,9.6-1.91,15-1.46,16.2s.37.6.76.5c.58-.2,1.27-1.1,2.26-2.8,2.68-5.2,5.39-11.8,8.02-19.9,1.62-4,3.02-9,4.29-15.1.92-4,2.91-6.6,6.08-7.7s.9,0,1.06.5l-.14,2.2c-.26,2-1.03,6.4-2.13,13.1-1.09,6.8-1.73,10.6-1.91,11.6-.92,5.7-1.18,9.4-.68,11s.51.9.78.7c.58-.2,1.99-2.6,4.15-7.1,1.66-3.7,3.62-9,6.11-15.8.06-.3.25-.4.34-.5s.2,0,.34.3c.46,1.3.32,2.7-.2,4.2-2.65,7.1-5.12,13.2-7.43,18.1-1.61,3.3-3.39,6.8-5.57,10.3-2.08,3.5-3.84,5.5-5.18,6s-1.62-.2-2-1.7-.34-2.8,0-5.9c.23-3.1.48-6,.86-8.7l.52-4,.14.3Z"/>
      <path class="cls-3" d="M322.49,58.3c-.06,3.7-.85,7.1-2.48,10.2-1.63,3.1-3.35,5.4-5.07,6.9s-2.54,2.2-4.16,2.8c-4.42,1.5-6.1-5-5.95-8.8s.36-4.5,1.33-7.3,1.83-4.8,3.4-7.5c.92-1.5,1.95-2.9,3.21-4.1,2.22-2.3,4.79-4.3,7.48-6s4.97-3.6,8.33-3.9,3.8,0,4.28,4-.06,2-.21,3.3-.36,1.2-.48,1.8-.17,1.1-.82,1.5c-.09-2.4.35-5.4-.67-7.3s-.51-.9-.84-1.2c-.57-.6-1.47-.6-2.25-.4-1.38.2-2.4.8-3.42,1.5-5.45,3.8-10.74,8-14.15,13.8-1.98,3.5-4.2,9.2-2.7,15.9.45,2.1,1.74,2.8,3.28,2.3s2.23-1.4,3.05-2.9,1.34-3,1.59-4.3l.37-1.9c.49-2.6.43-6.4-.26-11.4-.6-5-1.52-9.4-2.38-13.2l-1.47-5.6c-.16-.5-.4-.8-.48-.7l-.26.3-5.22,14.9c-.37,1.1-.7,1.7-.98,1.8s-.5,0-.67-.6c-.31-.9-.19-1.6.02-2.3l.43-1.4c4.07-11.1,6.38-17.7,6.72-19.9.37-1.9,1.26-3.7,2.64-5.5,1.3-1.7,3.15-2.9,5.46-3.7s1,0,1.16.5-.02.7-.46,1.2c-.19.1-.35.4-.52.7-.16.3-.47,1.1-.94,2.2-.37,1.1-.71,2.4-.86,3.7-.14,1.3-.13,3.1.03,5.3.26,2.2.75,4.6,1.55,7.1,2.43,7.8,3.66,13.9,3.59,18.3l-.21-.1Z"/>
      <path class="cls-3" d="M27.91,142.1c-.27-3.1-1.46-12.2-1.46-12.2-.05-.4.19-.9.48-1l6.25-2.1,1.53,12.8c.38,3.2.58,5.7.95,8.8s.72,6,1.37,8.9c.55,2.9,1.27,5.6,1.98,8.2,3.22,11,9.19,16.6,17.32,15.2,5.88-1,13.69-6.8,17.24-10.5s6.59-8.4,9.41-13.3c-2.4,6.7-5.46,12-9.81,17.5-2.78,3.5-6.52,6.5-11.89,9.3-4.51,2.4-10.46,3.7-15.97,1.1-3.72-1.8-7.9-6.7-10.33-11.1-2.31-4.3-3.94-10.4-5.08-15.7-1.1-5-1.68-10.7-2.11-16l.11.1Z"/>
    </g>
    <g class="cls-1">
      <text class="cls-2" transform="translate(223.31 194.7) rotate(-18.91) scale(.99 .94) skewX(-18.46)"><tspan x="0" y="0">at Midni</tspan><tspan class="cls-4" x="234.97" y="0">g</tspan><tspan x="270.02" y="0">ht</tspan></text>
    </g>
  </g>
</svg>