<svg width="1080" height="1080" viewBox="0 0 1080 1080" fill="none" xmlns="http://www.w3.org/2000/svg">
<path d="M1080 540C1080 838.234 838.234 1080 540 1080C241.766 1080 0 838.234 0 540C0 241.766 241.766 0 540 0C838.234 0 1080 241.766 1080 540ZM453.689 540C453.689 587.668 492.332 626.311 540 626.311C587.668 626.311 626.311 587.668 626.311 540C626.311 492.332 587.668 453.689 540 453.689C492.332 453.689 453.689 492.332 453.689 540Z" fill="url(#paint0_linear_156_33)"/>
<mask id="path-2-inside-1_156_33" fill="white">
<path d="M1080 540C1080 838.234 838.234 1080 540 1080C241.766 1080 0 838.234 0 540C0 241.766 241.766 0 540 0C838.234 0 1080 241.766 1080 540ZM453.689 540C453.689 587.668 492.332 626.311 540 626.311C587.668 626.311 626.311 587.668 626.311 540C626.311 492.332 587.668 453.689 540 453.689C492.332 453.689 453.689 492.332 453.689 540Z"/>
</mask>
<path d="M1080 540C1080 838.234 838.234 1080 540 1080C241.766 1080 0 838.234 0 540C0 241.766 241.766 0 540 0C838.234 0 1080 241.766 1080 540ZM453.689 540C453.689 587.668 492.332 626.311 540 626.311C587.668 626.311 626.311 587.668 626.311 540C626.311 492.332 587.668 453.689 540 453.689C492.332 453.689 453.689 492.332 453.689 540Z" stroke="white" stroke-opacity="0.2" stroke-width="13.486" mask="url(#path-2-inside-1_156_33)"/>
<path d="M625.973 540C625.973 587.482 587.482 625.973 540 625.973C492.519 625.973 454.027 587.482 454.027 540C454.027 492.518 492.519 454.027 540 454.027C587.482 454.027 625.973 492.518 625.973 540ZM497.014 540C497.014 563.741 516.26 582.987 540 582.987C563.741 582.987 582.987 563.741 582.987 540C582.987 516.259 563.741 497.014 540 497.014C516.26 497.014 497.014 516.259 497.014 540Z" fill="url(#paint1_linear_156_33)"/>
<defs>
<linearGradient id="paint0_linear_156_33" x1="164.118" y1="164.118" x2="922.941" y2="922.941" gradientUnits="userSpaceOnUse">
<stop offset="0.25" stop-color="white" stop-opacity="0"/>
<stop offset="0.5" stop-color="white" stop-opacity="0.3"/>
<stop offset="0.75" stop-color="white" stop-opacity="0"/>
</linearGradient>
<linearGradient id="paint1_linear_156_33" x1="480.156" y1="480.156" x2="600.968" y2="600.968" gradientUnits="userSpaceOnUse">
<stop stop-color="white" stop-opacity="0.15"/>
<stop offset="0.5" stop-color="white" stop-opacity="0.3"/>
<stop offset="1" stop-color="white" stop-opacity="0.15"/>
</linearGradient>
</defs>
</svg>
